<svg width="115" height="40" viewBox="0 0 115 40" fill="none" xmlns="http://www.w3.org/2000/svg">
<path fill-rule="evenodd" clip-rule="evenodd" d="M91.3291 2.52892C93.1911 -0.842978 99.0732 -0.84297 100.935 2.52892L110.627 20.08C110.586 20.0762 105.434 19.605 101.76 21.8588C98.8589 23.6384 96.1842 24.6729 92.3976 24.8947C87.4439 25.1847 85.5414 22.4869 80.2665 21.8588C75.474 21.2883 69.4081 26.7921 68.3388 27.8035C68.2355 27.9012 68.2113 28.0346 68.2714 28.1528C68.3928 28.3915 68.7871 28.4534 69.0177 28.2717C69.8555 27.6109 70.5549 27.0839 73.2255 25.4503C75.8961 23.8167 78.0797 22.8532 80.4817 23.4662C84.1737 24.4084 87.4406 26.7629 92.3976 26.3602C95.8889 26.0766 98.0258 25.4381 100.705 23.6384C105.823 20.2002 111.832 22.3434 111.888 22.3636C111.891 22.3717 112.559 24.1133 113.097 25.1986C113.097 25.1986 111.64 22.8362 106.2 23.6384C100.761 24.4406 93.4581 30.7121 87.1606 28.2717C83.1685 26.7246 81.3269 25.2711 79.8836 27.246C79.1339 28.2718 76.694 34.0948 76.694 34.0948C75.8532 36.5075 73.779 39.2153 77.2127 39.2153H113.489C115.074 39.2153 114.999 39.609 114.999 39.609C115 39.6122 115.066 40.0028 113.489 40.0028H52.2398C52.2836 39.6338 53.0613 33.392 55.8594 30.0808C61.1656 23.8018 71.2053 24.4988 71.2442 24.5016L72.7062 23.3481C72.6598 23.3362 62.7188 20.8081 54.6301 29.0102C50.7924 32.9018 50.3972 39.6199 50.3777 40.0028H45.8798C43.7931 40.0027 42.4007 38.3107 43.256 36.8146L52.7372 20.2331C53.7544 18.4543 56.9674 18.4543 57.9845 20.2331L60.5882 24.7867L68.3111 13.8891C69.9762 11.5394 75.2363 11.5394 76.9016 13.8891L81.4844 20.356L91.3291 2.52892ZM90.8413 16.9532C90.5137 16.8065 90.1412 16.5057 89.5452 16.5587V16.5572C89.2093 16.5857 88.8026 16.734 88.6465 16.9092C88.3615 17.2247 88.502 18.0244 88.916 18.1425C89.435 18.2917 89.6234 18.1449 89.6348 17.8963C89.6368 17.8572 89.5932 17.7377 89.59 17.7553C89.5297 17.6493 89.413 17.5393 89.0147 17.6493C89.0166 17.6464 89.2486 17.4876 89.2489 17.484C89.4829 17.484 89.6744 17.5695 89.8106 17.7227C90.0145 17.9509 90.1164 18.0814 90.2641 18.3545C90.496 18.7824 90.6833 19.216 91.0734 19.5167C92.0804 20.2919 94.6798 21.0801 96.5127 20.327C97.1223 20.0775 97.63 19.6203 98.0991 19.2828C98.38 19.0815 98.9428 19.026 99.7614 18.916C99.7568 18.9138 99.0423 18.8272 99.0364 18.8248C98.5641 18.8248 98.147 18.9348 97.862 19.1304C97.5769 19.326 97.0121 19.7947 96.5773 19.9984C95.5246 20.494 94.3771 20.5861 93.0893 19.9438C92.6046 19.7018 92.0335 19.4369 91.7932 19.0244C91.5904 18.6756 91.6548 18.343 91.9731 18.1441C91.9598 18.1721 91.9296 18.2475 91.9285 18.25C91.9285 18.25 91.862 18.4612 91.9285 18.5672C92.3551 19.2445 93.7083 18.1604 93.0519 17.4048C92.6442 16.9353 92.3165 17.3208 92.0356 17.0453C91.7287 16.7438 91.0286 16.8611 90.8413 16.9532ZM91.3886 14.7265C91.0755 14.4396 90.779 14.296 90.0851 14.3392L90.0842 14.3352C89.6764 14.3597 89.488 14.5414 89.3206 14.7582C88.479 14.5569 87.6458 14.6319 87.1174 15.0402C85.5019 16.289 88.2887 17.0959 88.2887 16.1235C88.2886 15.5733 87.5159 15.6833 87.5626 16.0689C87.5172 15.9596 87.5393 15.7419 87.5397 15.7388C87.6333 15.5921 87.8902 15.592 88.0618 15.6393C88.4894 15.7575 88.608 16.1643 88.429 16.3991C88.3448 16.5091 88.1462 16.6492 87.9715 16.6607C86.6265 16.7479 86.824 16.0942 86.308 16.1325C85.7297 16.1741 85.5372 16.6239 85.5892 16.9777C85.5985 17.0452 85.5448 17.2232 85.5446 17.2239C85.4978 17.307 85.3822 17.4244 85.3645 17.4709C85.273 17.6844 85.3541 17.9575 85.4093 18.1401C85.532 18.5566 86.0189 18.8516 86.6232 18.8802C86.979 18.8965 87.7499 18.8418 87.9725 18.7041C88.4062 18.4359 88.3583 17.7978 87.9277 17.7179C87.4471 17.6282 87.2089 17.9991 87.5636 18.2705C87.5295 18.2551 87.3559 18.1979 87.3535 18.1971C87.2599 18.1238 87.2173 18.0105 87.2132 17.9771C87.1903 17.757 87.3816 17.5565 87.7519 17.5549C88.1544 17.5532 88.4072 17.8849 88.6413 18.3071C88.5476 17.9949 88.2002 17.6892 88.3136 17.2247C88.4582 16.6183 88.8983 16.4178 89.7179 16.3811C90.0092 16.368 90.5138 16.5277 90.8883 16.7299C91.5207 16.5098 92.0836 16.8213 92.2469 16.9867C92.692 16.9867 93.0364 16.9924 93.3006 17.4455C93.363 17.5507 93.3807 17.6787 93.3942 17.8123C93.4639 18.4913 92.4569 19.3349 91.839 18.669C91.8775 18.8198 91.864 18.8826 91.9285 18.9861C92.0336 19.1573 92.5744 19.4956 92.7617 19.6106C93.1985 19.8779 93.8269 20.1019 94.424 20.1973C95.9021 20.4329 96.8831 19.6839 97.5853 19.1704C97.3107 19.2698 96.6754 19.6185 96.6013 19.6659C96.0624 20.0148 95.2905 20.2349 94.424 19.9594C94.1234 19.864 93.7676 19.6553 93.675 19.3725C93.5949 19.1312 93.6542 18.8427 93.7686 18.6756C94.1441 18.1303 95.6181 18.1066 94.9857 18.9869C94.8921 18.859 95.0097 18.7489 95.0305 18.5998C94.9577 18.5615 94.9015 18.471 94.8058 18.4588C94.7631 18.4522 94.5354 18.4881 94.5655 18.4921C93.6522 19.4271 96.0395 20.1794 96.3443 18.6201C96.3454 18.615 96.4111 18.3224 96.3338 18.2118C96.2734 18.1253 96.0623 17.942 95.9292 17.8246C96.053 17.4578 96.0562 17.0624 95.7941 16.7682C95.6027 16.5514 95.3269 16.6721 95.0305 16.5221C94.7725 16.3917 94.7412 16.0054 94.2659 15.9231C92.8855 15.6826 92.718 17.0821 91.2991 16.487C90.6136 16.1993 91.0288 15.5203 91.6612 15.5758C91.8255 15.5905 91.9753 15.7063 91.942 15.888C91.9159 16.02 91.7932 16.0649 91.7932 16.0649C91.7816 16.0802 91.681 16.0298 91.7932 16.0298C91.9451 15.5611 91.2585 15.6467 91.169 16.0901C91.0993 16.4389 91.7787 16.6036 92.1532 16.4569C92.9396 16.1488 93.5346 15.5578 92.7825 14.9375C92.4434 14.6588 91.6841 14.6042 91.3886 14.7265ZM97.502 16.4177C97.3611 16.3729 96.3504 16.3542 96.1539 16.3828L96.1548 16.3835C95.6089 16.4626 96.0156 16.7585 96.1103 16.9467C96.2434 17.2174 96.2538 17.4864 96.1342 17.7977C96.5087 18.0178 96.6365 18.3105 96.5553 18.6781C96.4617 19.0994 96.1965 19.3822 95.8293 19.5583C95.1032 19.9063 93.9091 19.5763 94.2211 18.6015C94.1732 18.6105 94.0476 18.6372 94.0412 18.6364C93.9767 18.7081 93.8353 18.8207 93.8165 18.9185C93.6761 19.6422 94.5748 20.0808 95.5692 19.9398C96.3525 19.8274 96.958 19.2739 97.5915 18.9886C98.0669 18.7742 98.6671 18.6071 99.5035 18.6772C99.8218 18.704 100.253 18.806 100.675 18.9528C100.488 18.6781 99.6927 18.2069 99.21 18.2142C98.6972 18.2208 98.2863 18.7514 97.5134 18.1458C97.2649 17.9502 97.373 17.7423 97.7266 17.545C97.7266 17.545 97.8182 17.6192 97.7714 17.651C97.397 17.8988 97.6539 18.1596 98.0866 18.2851C98.0866 18.2851 98.2969 18.3349 98.4009 18.3202C98.9001 18.2492 99.3755 17.7325 99.1197 17.193C98.9345 16.8017 98.4746 16.8571 97.9961 16.7699C97.7995 16.734 97.6871 16.4772 97.502 16.4177ZM103.267 9.19846C103.267 8.94865 100.078 0.854533 95.7754 1.27576C91.6635 1.67838 88.4366 8.89139 89.2328 9.19846C90.0863 9.52735 93.1269 5.7375 93.4308 7.03265C94.0419 9.63672 95.2037 9.60695 95.5859 9.60695C96.2468 9.60674 97.0493 6.48776 98.1978 6.56832C99.1619 6.63612 98.9917 7.65157 100.264 8.58003C101.536 9.50841 103.266 9.44823 103.267 9.19846Z" fill="black"/>
<path d="M81.7049 29.6245H80.4817L81.7049 32.3708H82.9925L81.7049 29.6245Z" fill="black"/>
<path d="M82.9925 33.2862H81.8337L80.4817 37.3038H81.7049L82.9925 33.2862Z" fill="black"/>
<path d="M88.7867 29.6245H83.5076V30.4891H87.9498H88.0174C88.1578 30.4891 88.2717 30.6029 88.2717 30.7434V33.1845H89.3662V30.4891V30.2039C89.3662 29.8839 89.1067 29.6245 88.7867 29.6245Z" fill="black"/>
<path d="M83.3807 34.5009C83.5735 35.034 82.086 37.0711 82.4794 37.121C82.6726 37.1455 83.3516 36.017 84.0889 35.7215C84.9486 35.3771 86.4407 35.2183 86.6641 36.053C86.7504 36.3755 85.634 36.944 85.7628 37.1719C85.8915 37.3998 86.9975 36.2497 87.4367 36.0775C87.7586 35.9513 87.3723 35.6707 87.5389 35.4673C87.8229 35.213 87.5012 34.9777 87.6298 34.8061C87.7473 34.6492 88.8679 35.044 88.3392 35.6682C88.2692 35.751 88.2967 35.8896 88.4015 35.9172C88.4726 35.9359 88.5452 35.8923 88.5617 35.8208C88.7153 35.1548 88.736 34.7694 87.4367 34.5782C87.4367 34.5782 85.532 35.26 84.4108 34.9342C83.4451 34.6536 83.1879 33.9679 83.3807 34.5009Z" fill="black"/>
<path d="M84.2802 30.8944L83.5761 31.3764C83.4346 31.4733 83.4048 31.6698 83.5112 31.8042C83.5867 31.8997 83.7129 31.9392 83.8293 31.9038L83.8408 31.9003C84.0938 31.8234 84.3228 32.0753 84.2322 32.3237L84.2158 32.3693C84.1127 32.6587 84.0022 33.0453 83.926 33.3256C83.8663 33.5449 83.9548 33.7764 84.1429 33.9038C84.2324 33.9643 84.3379 33.9967 84.4459 33.9967H87.3006C88.2636 33.9967 89.0443 34.7773 89.0443 35.7403C89.0443 36.1255 88.732 36.4378 88.3468 36.4378H88.2669C88.0562 36.4378 87.8854 36.6086 87.8854 36.8192C87.8854 37.0299 88.0562 37.2006 88.2669 37.2006H89.8168H89.8471C90.0437 37.2006 90.2031 37.0413 90.2031 36.8446L90.2675 33.6915V33.4405C90.2675 33.2983 90.1522 33.183 90.01 33.183H86.8813C86.5753 33.183 86.2809 33.0656 86.0588 32.8551C85.8657 32.6721 85.7392 32.4299 85.6993 32.1669L85.5949 31.4797C85.578 31.3688 85.5048 31.2747 85.4015 31.2312L84.6021 30.8944C84.6021 30.8944 84.5377 30.6397 84.4733 30.6406C84.4089 30.6415 84.2802 30.8944 84.2802 30.8944Z" fill="black"/>
<path fill-rule="evenodd" clip-rule="evenodd" d="M106.105 30.5403V34.202L103.465 37.3042H104.431L106.362 34.9648V38.2196H80.4817V37.7619L102.435 37.3042L103.916 35.8294H102.757V30.5403L104.431 28.7095L106.105 30.5403ZM103.465 30.1843V35.4225H104.045V29.574L103.465 30.1843ZM104.817 34.7614L105.332 34.3037V30.1843L104.817 29.574V34.7614Z" fill="black"/>
<path d="M110.773 32.901C111.091 32.901 111.249 33.0272 111.249 33.2796V33.7041H112.201C112.519 33.7041 112.677 33.8189 112.677 34.0483C112.677 34.2778 112.519 34.3926 112.201 34.3926H111.249V35.0466H112.648C112.966 35.0466 113.125 35.1614 113.125 35.3909C113.125 35.6203 112.966 35.735 112.648 35.735H111.249V36.412H112.908C113.226 36.412 113.384 36.5267 113.384 36.7562C113.384 36.9857 113.226 37.1004 112.908 37.1004H111.249V37.8922C111.249 38.1446 111.091 38.2708 110.773 38.2708H109.879C109.562 38.2708 109.403 38.1446 109.403 37.8922V37.1004H107.729C107.412 37.1004 107.253 36.9857 107.253 36.7562C107.253 36.5268 107.412 36.412 107.729 36.412H109.403V35.735H108.004C107.686 35.735 107.528 35.6203 107.528 35.3909C107.528 35.1614 107.686 35.0466 108.004 35.0466H109.403V34.3926H108.436C108.119 34.3926 107.96 34.2778 107.96 34.0483C107.96 33.8189 108.119 33.7042 108.436 33.7041H109.403V33.2796C109.403 33.0272 109.562 32.901 109.879 32.901H110.773Z" fill="black"/>
<path fill-rule="evenodd" clip-rule="evenodd" d="M108.898 28.5063C108.975 28.5064 109.047 28.5179 109.114 28.5408L109.691 28.6899C109.903 28.7511 110.009 28.843 110.009 28.9653C110.009 29.0342 109.97 29.1107 109.893 29.1948L109.504 29.6309H112.966C113.245 29.6309 113.384 29.6997 113.384 29.8374C113.384 29.9215 113.322 30.0095 113.197 30.1013L111.249 31.4896L113.514 33.0845C113.639 33.1763 113.702 33.2643 113.702 33.3484C113.702 33.4402 113.615 33.5282 113.442 33.6124L113.11 33.75C113.014 33.7959 112.913 33.8189 112.807 33.8189C112.692 33.8189 112.572 33.7768 112.447 33.6926L110.283 32.1781L108.177 33.6812C108.052 33.7653 107.927 33.8073 107.802 33.8073C107.725 33.8073 107.628 33.7883 107.513 33.75L107.152 33.6124C106.97 33.5359 106.878 33.4479 106.878 33.3484C106.878 33.272 106.941 33.184 107.066 33.0845L109.302 31.4782L108.407 30.847L108.278 30.9962C108.162 31.1263 108.023 31.1913 107.859 31.1913C107.792 31.1913 107.72 31.1798 107.643 31.1568L107.066 31.0077C106.854 30.9465 106.749 30.8547 106.749 30.7323C106.749 30.6635 106.787 30.587 106.864 30.5029L108.48 28.7014C108.595 28.5714 108.734 28.5063 108.898 28.5063ZM109.576 30.3193L110.268 30.8011L110.932 30.3193H109.576Z" fill="black"/>
<path d="M98.9004 35.9591C98.9004 36.155 98.7755 36.2529 98.5258 36.2529H97.8219C97.5722 36.2529 97.4473 36.155 97.4473 35.9591V35.5497H95.6082C95.3585 35.5497 95.2336 35.4607 95.2336 35.2826C95.2336 35.1046 95.3585 35.0156 95.6082 35.0156H97.4473V34.3035H96.0056C95.7558 34.3035 95.6309 34.2145 95.6309 34.0364C95.6309 33.8584 95.7558 33.7694 96.0056 33.7694H97.4473V33.1018H95.9829C95.7331 33.1018 95.6082 33.0128 95.6082 32.8347C95.6082 32.6567 95.7331 32.5677 95.9829 32.5677H97.4473V31.7933H95.5515C95.3017 31.7933 95.1768 31.7043 95.1768 31.5262C95.1768 31.3482 95.3017 31.2592 95.5515 31.2592H97.4473V30.5026H95.9374C95.6877 30.5026 95.5628 30.4136 95.5628 30.2355C95.5628 30.0575 95.6877 29.9685 95.9374 29.9685H97.4473V29.8172C97.4473 29.6214 97.5722 29.5234 97.8219 29.5234H98.5258C98.7755 29.5234 98.9004 29.6214 98.9004 29.8172V29.9685H100.694C100.944 29.9685 101.069 30.0664 101.069 30.2623V31.2681C101.25 31.2918 101.341 31.3779 101.341 31.5262C101.341 31.6746 101.25 31.7607 101.069 31.7844V32.8971C101.069 33.0929 100.944 33.1908 100.694 33.1908H99.9903C99.8616 33.1908 99.7632 33.1611 99.6951 33.1018H98.9004V33.7694H100.422C100.671 33.7694 100.796 33.8584 100.796 34.0364C100.796 34.2145 100.671 34.3035 100.422 34.3035H98.9004V35.0156H100.967C101.216 35.0156 101.341 35.1046 101.341 35.2826C101.341 35.4607 101.216 35.5497 100.967 35.5497H98.9004V35.9591ZM92.8723 36.965C92.789 37.0896 92.6717 37.1519 92.5204 37.1519C92.4977 37.1519 92.475 37.149 92.4523 37.143C92.4296 37.143 92.4068 37.14 92.3841 37.1341L91.8392 37.0273C91.65 36.9917 91.5554 36.9145 91.5554 36.7959C91.5554 36.7603 91.5743 36.7128 91.6122 36.6534L92.282 35.6387C92.1003 35.5497 91.9187 35.4547 91.7371 35.3538C91.6311 35.2945 91.5781 35.2292 91.5781 35.158C91.5781 35.0749 91.6387 35.0037 91.7598 34.9444L91.9755 34.8376C92.0663 34.7901 92.1533 34.7663 92.2366 34.7663C92.3122 34.7663 92.369 34.7812 92.4068 34.8109C92.5128 34.8702 92.615 34.9295 92.7134 34.9889L93.7124 33.4846H92.282C92.0701 33.4846 91.9641 33.4193 91.9641 33.2887C91.9641 33.2353 91.9792 33.1849 92.0095 33.1374L93.7805 30.3157H92.3501C92.1003 30.3157 91.9755 30.2266 91.9755 30.0486C91.9755 29.8706 92.1003 29.7816 92.3501 29.7816H95.086C95.2979 29.7816 95.4039 29.8469 95.4039 29.9774C95.4039 30.0308 95.3887 30.0813 95.3585 30.1287L93.5875 32.9505H95.0066C95.226 32.9505 95.3358 33.0157 95.3358 33.1463C95.3358 33.1878 95.3168 33.2383 95.279 33.2976L93.8145 35.523C94.3746 35.7663 94.9687 35.9621 95.5969 36.1105C96.2326 36.2529 96.9667 36.3597 97.7992 36.4309C98.6393 36.5021 99.6345 36.5407 100.785 36.5466C101.042 36.5466 101.171 36.6356 101.171 36.8137C101.171 36.9917 101.042 37.0807 100.785 37.0807C99.6951 37.0748 98.7112 37.0362 97.8333 36.965C96.9554 36.8997 96.1569 36.7988 95.4379 36.6623C94.719 36.5259 94.0492 36.3449 93.4286 36.1194L92.8723 36.965ZM99.6156 30.5026H98.9004V31.2592H99.6156V30.5026ZM98.9004 32.5677H99.6156V31.7933H98.9004V32.5677Z" fill="black"/>
<circle cx="20" cy="20" r="20" fill="black"/>
<path d="M21 30.4884V9H33.8372V11.3083H23.5925V18.569H32.8755V20.8774H23.5925V30.4884H21Z" fill="#940202"/>
<path d="M15.4433 9H18V23.9568C18 25.2918 17.7526 26.4258 17.2577 27.3589C16.7629 28.292 16.0653 29.0004 15.1649 29.4839C14.2646 29.9675 13.2027 30.2093 11.9794 30.2093C10.8247 30.2093 9.79725 30.0016 8.89691 29.5861C7.99656 29.1638 7.28866 28.5645 6.7732 27.788C6.25773 27.0116 6 26.0887 6 25.0194H8.51546C8.51546 25.6119 8.66323 26.1295 8.95876 26.5723C9.26117 27.0082 9.67354 27.3487 10.1959 27.5939C10.7182 27.8391 11.3127 27.9617 11.9794 27.9617C12.7148 27.9617 13.3402 27.8084 13.8557 27.502C14.3711 27.1955 14.7629 26.7459 15.0309 26.1534C15.3058 25.554 15.4433 24.8218 15.4433 23.9568V9Z" fill="#E50505"/>
</svg>
